<!--?xml version="1.0" encoding="iso-8859-1"?-->
<!-- Generator: Adobe Illustrator 22.1.0, SVG Export Plug-In . SVG Version: 6.00 Build 0)  -->
<svg version="1.1" id="_x34_" xmlns="http://www.w3.org/2000/svg" xmlns:xlink="http://www.w3.org/1999/xlink" x="0px" y="0px" viewBox="0 0 363.7 512" style="opacity: 1; width: 256px;" xml:space="preserve">
<style type="text/css">
	.st0{fill:#AAA9A9;}
	.st1{fill:#BDBD94;}
	.st2{fill:#2C6673;}
	.st3{opacity:0.1;fill:#222222;}
	.st4{fill:#6CA542;}
	.st5{fill:#BEA341;}
	.st6{opacity:0.1;fill:#040000;}
	.st7{opacity:0.5;fill:#FFFFFF;}
	.st8{fill:#ECE285;}
</style>
<g>
	<path class="st0" d="M350.1,111.8L193.9,18V0h-24v18L13.6,111.8l3.8,6.3l153-91.8c1.4,5,6,8.7,11.5,8.7c5.5,0,10.1-3.7,11.5-8.7
		l153,91.8L350.1,111.8z"></path>
	<rect x="0" y="82" class="st1" width="363.7" height="430"></rect>
	
		<rect x="22" y="170.3" transform="matrix(-1.836970e-16 1 -1 -1.836970e-16 478.8827 115.1337)" class="st2" width="319.8" height="253.5"></rect>
	<path class="st3" d="M308.6,263.4v193.5H55.1V279.8c23.9-8.4,51.2-14.8,80.5-19h0.1c15.9-2.3,32.4-3.9,49.5-4.7
		c9.5-0.5,19.1-0.8,28.8-0.8C247.3,255.4,279.2,258.2,308.6,263.4z"></path>
	<path class="st4" d="M308.6,295.8v161.1H135.8c5.1-23.7,16.1-47.2,32.7-69.2c13-17.2,29.3-33.2,49.1-47.7
		C245.1,319.9,276.3,305.1,308.6,295.8z"></path>
	<path class="st5" d="M194.3,456.9H55.1V314.5c45.9,16.5,87.8,40.7,113.4,73.3C184.2,407.6,193.8,430.6,194.3,456.9z"></path>
	<g>
		<path class="st6" d="M300.5,82l-106.6-64v5c0,1.2-0.2,2.3-0.5,3.3L286.2,82H300.5z"></path>
		<polygon class="st6" points="308.6,150.7 308.6,456.9 55.2,456.9 55.2,456.9 71.7,456.9 71.7,153.7 308.6,153.7 308.6,137.1 
			55.1,137.1 55.1,443.2 0,512 363.7,512 363.7,82 		"></polygon>
	</g>
	<path class="st7" d="M181.2,29.1H173c-0.3,0-0.6-0.3-0.6-0.6V3h9.4v25.5C181.8,28.8,181.6,29.1,181.2,29.1z"></path>
	
		<ellipse transform="matrix(0.7071 -0.7071 0.7071 0.7071 -114.8584 181.8125)" class="st8" cx="162" cy="229.6" rx="49.1" ry="49.1"></ellipse>
</g>
</svg>
